<svg width="1712" height="1375" viewBox="0 0 1712 1375" fill="none" xmlns="http://www.w3.org/2000/svg">
<path fill-rule="evenodd" clip-rule="evenodd" d="M619.576 39.055C619.576 39.0569 619.546 39.0832 619.486 39.128C619.546 39.0755 619.576 39.0531 619.576 39.055ZM609.821 53.6516C586.697 93.7622 542.621 187.935 488.165 310.222C446.027 404.846 398.078 515.363 349.539 628.684C319.451 753.147 241.024 939.49 170.732 1093.71C135.298 1171.46 101.707 1241.52 76.9754 1292.14C64.608 1317.46 54.4519 1337.92 47.3834 1352.07C43.8491 1359.14 41.0864 1364.63 39.2048 1368.36C38.2641 1370.22 37.5436 1371.65 37.057 1372.61C36.8138 1373.09 36.629 1373.45 36.5044 1373.69L36.3167 1374.06C36.3144 1374.07 36.3129 1374.07 18.4886 1365C0 1357.37 0.00195312 1357.37 0.00576973 1357.36L1.41249 1353.95C2.34421 1351.69 3.72773 1348.35 5.53585 1343.97C9.15208 1335.22 14.4667 1322.38 21.2619 1305.98C34.8523 1273.18 54.3653 1226.17 78.0588 1169.31C125.444 1055.61 189.557 902.518 256.455 744.995C274.667 702.111 293.088 658.893 311.436 616.048C341.077 492.809 389.605 358.557 430.606 255.311C451.231 203.374 470.017 159.12 483.653 127.835C490.473 112.19 496.007 99.7829 499.842 91.2733C501.76 87.0183 503.253 83.7373 504.27 81.5128C504.779 80.4006 505.168 79.5524 505.433 78.9787C505.565 78.6918 505.665 78.4736 505.734 78.3252L505.833 78.1098L505.839 78.0971C505.841 78.0935 505.842 78.091 523.989 86.4999L534.215 91.2387C542.135 94.9087 542.135 94.9087 542.135 94.9094L542.131 94.9166L542.047 95.0986C541.986 95.2321 541.892 95.4352 541.767 95.7069C541.517 96.2501 541.141 97.0671 540.647 98.1476C539.659 100.309 538.196 103.523 536.309 107.709C533.448 114.058 529.613 122.639 524.985 133.166C549.257 81.8452 568.686 43.5226 581.059 23.8517C584.345 18.6273 588.033 13.7186 592.263 9.81801C596.363 6.03677 602.51 1.79379 610.595 0.94883C619.546 0.0133916 626.972 3.60455 632.092 8.27943C636.745 12.5272 639.797 17.8443 641.898 22.4726C646.132 31.7993 649.05 44.1547 651.266 57.6872C653.539 71.5695 655.289 88.1238 656.646 106.639C662.054 180.417 661.579 290.721 660.675 401.476C660.597 411.117 660.515 420.764 660.433 430.393C659.57 531.961 658.723 631.61 661.914 703.48C663.31 734.907 665.444 759.844 668.384 776.99C673.272 767.82 678.734 755.99 684.68 741.542C695.439 715.403 706.981 682.757 718.984 646.294C734.669 598.642 750.874 545.316 766.975 492.334C775.57 464.05 784.136 435.864 792.576 408.692C816.49 331.708 839.738 261.68 859.342 224.552C864.256 215.244 869.642 206.613 875.595 200.321C880.653 194.976 891.698 185.554 906.467 189.419C919.986 192.957 926.233 205.278 929.217 212.844C932.773 221.86 935.343 233.67 937.298 247.749C950.553 343.182 952.342 431.367 953.86 506.205C954.083 517.167 954.299 527.843 954.545 538.213C955.514 579.06 956.925 614.79 960.747 645.202C964.348 673.862 969.932 696.312 978.325 713.125C980.735 710.309 983.531 706.465 986.691 701.473C1001.67 677.799 1019.12 637.747 1038.92 591.606C1039.78 589.597 1040.65 587.579 1041.52 585.552C1060.22 541.933 1080.61 494.39 1101.74 455.097C1112.81 434.514 1124.42 415.55 1136.5 400.289C1148.31 385.372 1162 372.129 1177.79 365.543C1186.7 361.823 1196.46 360.577 1206.19 363.464C1215.71 366.289 1222.88 372.386 1228.12 379.075C1238.09 391.777 1243.94 410.224 1247.82 428.992C1255.79 467.457 1257.83 519.906 1258.28 567.886C1258.41 582.441 1258.4 596.494 1258.35 609.732C1264.74 593.648 1271.44 578.43 1278.39 564.427C1294.98 531.013 1314.19 502.019 1336.03 485.859C1347.28 477.537 1360.45 471.715 1375.07 471.837C1389.96 471.961 1403.48 478.226 1415.16 488.679C1437.4 508.571 1455.98 546.201 1472.18 601.365C1476.05 614.564 1480.84 619.781 1483.86 621.763C1486.38 623.424 1490.22 624.514 1497.24 622.69C1513.01 618.591 1535.42 601.963 1559.52 574.25C1582.9 547.371 1605.39 512.939 1621.97 478.162C1638.71 443.015 1648.49 409.463 1648.49 384H1688.49C1688.49 418.037 1675.95 457.86 1658.07 495.37C1640.02 533.248 1615.58 570.754 1589.7 600.5C1564.56 629.412 1535.41 654.097 1507.3 661.404C1492.38 665.283 1476.2 664.6 1461.88 655.186C1448.05 646.094 1439.17 630.936 1433.8 612.635C1417.92 558.548 1401.83 530.428 1388.49 518.491C1382.39 513.03 1377.88 511.861 1374.74 511.835C1371.32 511.807 1366.44 513.117 1359.82 518.014C1345.93 528.292 1330.17 550.079 1314.22 582.212C1298.6 613.69 1283.92 652.738 1271.12 694.819C1268.76 702.58 1266.45 709.179 1264.08 713.991C1263.02 716.149 1261.15 719.648 1258.17 722.665C1255.46 725.398 1245.86 733.093 1233.6 727.272C1228.98 725.075 1226.27 721.76 1224.88 719.711C1223.44 717.568 1222.56 715.505 1222.03 714.056C1220.98 711.179 1220.39 708.209 1220.02 705.827C1219.25 700.899 1218.82 694.724 1218.56 688.091C1217.99 673.409 1218.11 651.984 1218.25 627.718C1218.35 608.992 1218.47 588.574 1218.28 568.255C1217.83 520.175 1215.73 471.303 1208.65 437.104C1205.02 419.541 1200.62 408.82 1196.65 403.76C1195.81 402.685 1195.2 402.153 1194.88 401.911C1194.56 401.969 1194.02 402.113 1193.19 402.457C1186.72 405.157 1178.15 412.114 1167.86 425.117C1157.84 437.776 1147.5 454.454 1136.97 474.041C1116.7 511.729 1096.94 557.802 1077.99 601.988L1075.68 607.378C1056.41 652.282 1037.58 695.858 1020.49 722.865C1016.12 729.762 1011.53 736.135 1006.71 741.399C1002.06 746.472 996.126 751.705 988.821 754.717C980.684 758.073 971.126 758.468 962.055 753.708C953.991 749.476 948.633 742.357 944.935 735.585C932.041 711.971 925.139 682.664 921.059 650.189C916.958 617.554 915.525 580.003 914.557 539.162C914.307 528.625 914.087 517.844 913.862 506.829C912.334 431.904 910.585 346.178 897.679 253.251C897.049 248.718 896.389 244.771 895.718 241.355C895.389 241.959 895.054 242.584 894.714 243.229C877.208 276.382 855.049 342.417 830.776 420.558C822.5 447.2 814.015 475.12 805.455 503.284C789.258 556.58 772.794 610.752 756.978 658.8C744.864 695.602 732.972 729.308 721.67 756.767C710.646 783.551 699.324 806.6 687.825 820.338C684.512 824.295 679.554 829.117 672.655 831.562C664.379 834.496 655.762 833.137 648.874 828.31C643.12 824.276 639.685 818.638 637.585 814.327C635.333 809.703 633.6 804.459 632.197 799.089C626.726 778.143 623.711 744.83 621.954 705.254C618.712 632.254 619.57 531.501 620.432 430.322C620.515 420.594 620.597 410.861 620.677 401.149C621.585 289.841 622.017 181.364 616.753 109.564C615.442 91.6849 613.801 76.4199 611.792 64.1506C611.149 60.2237 610.487 56.7316 609.821 53.6516ZM905.771 226.769C905.769 226.785 905.649 226.893 905.418 227.05C905.658 226.833 905.773 226.754 905.771 226.769ZM890.805 224.916C890.637 224.709 890.56 224.578 890.564 224.564C890.568 224.551 890.652 224.654 890.805 224.916ZM1195.24 401.878C1195.24 401.881 1195.2 401.885 1195.12 401.877C1195.2 401.872 1195.23 401.875 1195.24 401.878ZM1194.64 401.753C1194.61 401.74 1194.6 401.733 1194.6 401.732C1194.6 401.731 1194.61 401.737 1194.64 401.753ZM1227.96 696.764C1227.96 696.772 1227.99 696.711 1228.06 696.596C1228 696.704 1227.97 696.757 1227.96 696.764ZM656.474 795.393C656.474 795.39 656.51 795.355 656.583 795.294C656.51 795.366 656.473 795.397 656.474 795.393ZM673.9 797.478C673.954 797.553 673.98 797.596 673.978 797.597C673.977 797.599 673.95 797.562 673.9 797.478ZM18.4886 1365L0 1357.37L36.3129 1374.07L18.4886 1365ZM1668.26 237.705C1668.26 237.705 1668.28 237.711 1668.33 237.723C1668.28 237.712 1668.25 237.705 1668.26 237.705ZM1673.77 242.523L1680.32 253.291C1680.82 258.198 1679.35 262.179 1677.88 264.716C1676.73 263.698 1675.51 262.353 1674.44 260.602C1672.42 257.313 1671.52 253.55 1671.73 249.893C1671.91 246.508 1672.98 243.988 1673.75 242.559C1673.76 242.547 1673.77 242.535 1673.77 242.523ZM1671.62 270.974C1671.63 270.972 1671.63 270.969 1671.64 270.966C1671.49 271.038 1671.48 271.037 1671.62 270.974ZM1685.51 268.511C1685.57 268.514 1685.6 268.517 1685.6 268.518C1685.6 268.519 1685.57 268.517 1685.51 268.511ZM1701.64 270.165C1699.34 272.083 1696.68 273.883 1693.88 275.588L1689.09 278.5H1683.49C1674.8 278.5 1667.86 278.15 1662.67 277.335C1660.22 276.951 1656.94 276.289 1653.75 274.891C1652.15 274.187 1649.64 272.902 1647.19 270.627C1644.61 268.236 1641.47 264.104 1640.63 258.152C1639.77 252.155 1641.67 247.256 1643.57 244.172C1645.36 241.269 1647.48 239.368 1648.81 238.307C1651.47 236.2 1654.24 234.897 1655.98 234.16C1659.75 232.556 1664.11 231.358 1668.01 230.515C1672.04 229.643 1676.47 228.959 1680.67 228.662C1682.78 228.513 1685.05 228.445 1687.32 228.552C1689.44 228.651 1692.37 228.932 1695.45 229.858C1697.02 230.333 1699.12 231.121 1701.32 232.484C1703.54 233.853 1706.34 236.117 1708.53 239.687C1710.86 243.476 1711.9 247.803 1711.67 252.09C1711.44 256.105 1710.16 259.323 1708.97 261.521C1707.78 263.729 1706.4 265.47 1705.24 266.746C1704.05 268.056 1702.81 269.193 1701.64 270.165Z" fill="#CCDBDC"/>
</svg>
