<svg width="1713" height="1375" viewBox="0 0 1713 1375" fill="none" xmlns="http://www.w3.org/2000/svg">
<path fill-rule="evenodd" clip-rule="evenodd" d="M620.088 39.055C620.088 39.0569 620.058 39.0832 619.997 39.128C620.058 39.0755 620.088 39.0531 620.088 39.055ZM610.333 53.6516C587.209 93.7622 543.133 187.935 488.677 310.222C446.539 404.846 398.59 515.363 350.05 628.684C319.962 753.147 241.535 939.49 171.243 1093.71C135.81 1171.46 102.218 1241.52 77.4869 1292.14C65.1195 1317.46 54.9633 1337.92 47.8948 1352.07C44.3605 1359.14 41.5978 1364.63 39.7163 1368.36C38.7755 1370.22 38.055 1371.65 37.5684 1372.61C37.3252 1373.09 37.1404 1373.45 37.0158 1373.69L36.8282 1374.06C36.8258 1374.07 36.8243 1374.07 19 1365C0.511414 1357.37 0.513367 1357.37 0.517183 1357.36L1.92391 1353.95C2.85562 1351.69 4.23915 1348.35 6.04726 1343.97C9.66349 1335.22 14.9781 1322.38 21.7733 1305.98C35.3637 1273.18 54.8767 1226.17 78.5702 1169.31C125.956 1055.61 190.068 902.518 256.966 744.995C275.178 702.111 293.599 658.893 311.948 616.048C341.588 492.809 390.117 358.557 431.117 255.311C451.742 203.374 470.529 159.12 484.165 127.835C490.984 112.19 496.518 99.7829 500.353 91.2733C502.271 87.0183 503.764 83.7373 504.782 81.5128C505.29 80.4006 505.68 79.5524 505.944 78.9787C506.076 78.6918 506.177 78.4736 506.245 78.3252L506.345 78.1098L506.351 78.0971C506.352 78.0935 506.354 78.091 524.5 86.4999L534.726 91.2387C542.646 94.9087 542.646 94.9087 542.646 94.9094L542.643 94.9166L542.559 95.0986C542.497 95.2321 542.403 95.4352 542.278 95.7069C542.028 96.2501 541.653 97.0671 541.159 98.1476C540.17 100.309 538.707 103.523 536.82 107.709C533.959 114.058 530.125 122.639 525.496 133.166C549.769 81.8452 569.198 43.5226 581.57 23.8517C584.856 18.6273 588.544 13.7186 592.774 9.81801C596.875 6.03677 603.021 1.79379 611.106 0.94883C620.057 0.0133916 627.483 3.60455 632.604 8.27943C637.257 12.5272 640.309 17.8443 642.41 22.4726C646.643 31.7994 649.562 44.1547 651.777 57.6872C654.05 71.5695 655.8 88.1238 657.157 106.639C662.566 180.417 662.091 290.721 661.187 401.476C661.108 411.117 661.026 420.764 660.944 430.393C660.081 531.961 659.234 631.61 662.426 703.48C663.821 734.907 665.955 759.844 668.895 776.99C673.783 767.82 679.245 755.99 685.192 741.542C695.95 715.403 707.492 682.757 719.495 646.294C735.181 598.642 751.386 545.316 767.486 492.334C776.082 464.05 784.647 435.864 793.088 408.692C817.002 331.708 840.249 261.68 859.853 224.552C864.768 215.244 870.153 206.613 876.107 200.321C881.164 194.976 892.21 185.554 906.979 189.419C920.497 192.957 926.745 205.278 929.728 212.844C933.284 221.86 935.854 233.67 937.81 247.749C951.064 343.182 952.854 431.367 954.372 506.205C954.594 517.167 954.811 527.843 955.057 538.213C956.026 579.06 957.437 614.79 961.258 645.202C964.859 673.862 970.443 696.312 978.836 713.125C981.247 710.309 984.042 706.465 987.202 701.473C1002.19 677.799 1019.64 637.747 1039.43 591.606C1040.29 589.597 1041.16 587.579 1042.03 585.552C1060.73 541.933 1081.12 494.39 1102.25 455.097C1113.32 434.514 1124.93 415.55 1137.01 400.289C1148.82 385.372 1162.52 372.129 1178.3 365.543C1187.21 361.823 1196.97 360.577 1206.7 363.464C1216.22 366.289 1223.39 372.386 1228.63 379.075C1238.6 391.777 1244.45 410.224 1248.33 428.992C1256.3 467.457 1258.34 519.906 1258.79 567.886C1258.92 582.441 1258.91 596.494 1258.86 609.732C1265.26 593.648 1271.96 578.43 1278.91 564.427C1295.49 531.013 1314.7 502.019 1336.54 485.859C1347.79 477.537 1360.96 471.715 1375.58 471.837C1390.48 471.961 1403.99 478.226 1415.67 488.679C1437.91 508.571 1456.49 546.201 1472.69 601.365C1476.57 614.564 1481.36 619.781 1484.37 621.763C1486.9 623.424 1490.73 624.514 1497.75 622.69C1513.52 618.591 1535.93 601.963 1560.03 574.25C1583.41 547.371 1605.9 512.939 1622.48 478.162C1639.23 443.015 1649 409.463 1649 384H1689C1689 418.037 1676.46 457.86 1658.59 495.37C1640.53 533.248 1616.09 570.754 1590.22 600.5C1565.07 629.412 1535.92 654.097 1507.81 661.404C1492.89 665.283 1476.71 664.6 1462.4 655.186C1448.57 646.094 1439.68 630.936 1434.31 612.635C1418.43 558.548 1402.35 530.428 1389 518.491C1382.9 513.03 1378.39 511.861 1375.25 511.835C1371.83 511.807 1366.95 513.117 1360.33 518.014C1346.44 528.292 1330.69 550.079 1314.74 582.212C1299.11 613.69 1284.43 652.738 1271.63 694.819C1269.27 702.58 1266.96 709.179 1264.6 713.991C1263.53 716.149 1261.66 719.648 1258.68 722.665C1255.97 725.398 1246.37 733.093 1234.12 727.272C1229.49 725.075 1226.78 721.76 1225.4 719.711C1223.95 717.568 1223.07 715.505 1222.54 714.056C1221.49 711.179 1220.9 708.209 1220.53 705.827C1219.76 700.899 1219.33 694.724 1219.07 688.091C1218.5 673.409 1218.62 651.984 1218.76 627.718C1218.86 608.992 1218.98 588.574 1218.79 568.255C1218.35 520.175 1216.25 471.303 1209.16 437.104C1205.53 419.541 1201.13 408.82 1197.16 403.76C1196.32 402.685 1195.71 402.153 1195.39 401.911C1195.07 401.969 1194.53 402.113 1193.7 402.457C1187.23 405.157 1178.67 412.114 1168.37 425.117C1158.35 437.776 1148.01 454.454 1137.48 474.041C1117.22 511.729 1097.46 557.802 1078.5 601.988L1076.19 607.378C1056.93 652.282 1038.09 695.858 1021 722.865C1016.64 729.762 1012.05 736.135 1007.22 741.399C1002.57 746.472 996.637 751.705 989.333 754.717C981.196 758.073 971.637 758.468 962.567 753.708C954.502 749.476 949.144 742.357 945.446 735.585C932.553 711.971 925.651 682.664 921.57 650.189C917.469 617.554 916.037 580.003 915.068 539.162C914.818 528.625 914.598 517.844 914.374 506.829C912.845 431.904 911.097 346.178 898.19 253.251C897.56 248.718 896.9 244.771 896.229 241.355C895.901 241.959 895.566 242.584 895.225 243.229C877.72 276.382 855.561 342.417 831.287 420.558C823.011 447.2 814.526 475.12 805.967 503.284C789.769 556.58 773.306 610.752 757.489 658.8C745.375 695.602 733.483 729.308 722.181 756.767C711.157 783.551 699.836 806.6 688.336 820.338C685.024 824.295 680.066 829.117 673.166 831.562C664.89 834.496 656.274 833.137 649.386 828.31C643.631 824.276 640.196 818.638 638.096 814.327C635.844 809.703 634.111 804.459 632.709 799.089C627.238 778.143 624.222 744.83 622.465 705.254C619.224 632.254 620.081 531.501 620.943 430.322C621.026 420.594 621.109 410.861 621.188 401.149C622.097 289.841 622.528 181.364 617.264 109.564C615.954 91.6849 614.312 76.4199 612.303 64.1506C611.66 60.2237 610.999 56.7316 610.333 53.6516ZM906.282 226.769C906.28 226.785 906.161 226.893 905.93 227.05C906.169 226.833 906.285 226.754 906.282 226.769ZM891.316 224.916C891.148 224.709 891.072 224.578 891.075 224.564C891.079 224.551 891.164 224.654 891.316 224.916ZM1195.75 401.878C1195.75 401.881 1195.71 401.885 1195.63 401.877C1195.71 401.872 1195.74 401.875 1195.75 401.878ZM1195.15 401.753C1195.13 401.74 1195.11 401.733 1195.11 401.732C1195.11 401.731 1195.13 401.737 1195.15 401.753ZM1228.48 696.764C1228.47 696.772 1228.5 696.711 1228.57 696.596C1228.51 696.704 1228.48 696.757 1228.48 696.764ZM656.985 795.393C656.986 795.39 657.022 795.355 657.094 795.294C657.021 795.366 656.985 795.397 656.985 795.393ZM674.411 797.478C674.466 797.553 674.491 797.596 674.49 797.597C674.489 797.599 674.462 797.562 674.411 797.478ZM19 1365L0.511414 1357.37L36.8243 1374.07L19 1365ZM1668.77 237.705C1668.77 237.705 1668.8 237.711 1668.84 237.723C1668.79 237.712 1668.77 237.705 1668.77 237.705ZM1674.28 242.523L1680.83 253.291C1681.33 258.198 1679.86 262.179 1678.39 264.716C1677.25 263.698 1676.02 262.353 1674.95 260.602C1672.93 257.313 1672.04 253.55 1672.24 249.893C1672.42 246.508 1673.5 243.988 1674.27 242.559C1674.27 242.547 1674.28 242.535 1674.28 242.523ZM1672.13 270.974C1672.14 270.972 1672.15 270.969 1672.15 270.966C1672.01 271.038 1671.99 271.037 1672.13 270.974ZM1686.02 268.511C1686.08 268.514 1686.11 268.517 1686.11 268.518C1686.11 268.519 1686.08 268.517 1686.02 268.511ZM1702.15 270.165C1699.85 272.083 1697.2 273.883 1694.39 275.588L1689.6 278.5H1684C1675.31 278.5 1668.37 278.15 1663.18 277.335C1660.73 276.951 1657.46 276.289 1654.27 274.891C1652.66 274.187 1650.15 272.902 1647.7 270.627C1645.13 268.236 1641.98 264.104 1641.14 258.152C1640.28 252.155 1642.18 247.256 1644.08 244.172C1645.87 241.269 1647.99 239.368 1649.32 238.307C1651.98 236.2 1654.76 234.897 1656.49 234.16C1660.27 232.556 1664.62 231.358 1668.52 230.515C1672.55 229.643 1676.99 228.959 1681.18 228.662C1683.29 228.513 1685.56 228.445 1687.84 228.552C1689.95 228.651 1692.88 228.932 1695.96 229.858C1697.53 230.333 1699.63 231.121 1701.84 232.484C1704.05 233.853 1706.86 236.117 1709.05 239.687C1711.37 243.476 1712.41 247.803 1712.18 252.09C1711.96 256.105 1710.67 259.323 1709.48 261.521C1708.3 263.729 1706.91 265.47 1705.75 266.746C1704.56 268.056 1703.32 269.193 1702.15 270.165Z" fill="#003249"/>
</svg>
